<?xml version="1.0" encoding="UTF-8"?>
<svg xmlns="http://www.w3.org/2000/svg" xmlns:xlink="http://www.w3.org/1999/xlink" width="16px" height="16px" viewBox="0 0 16 16" version="1.1">
<g id="surface1">
<path style=" stroke:none;fill-rule:nonzero;fill:rgb(90.196078%,31.764706%,0%);fill-opacity:1;" d="M 13.667969 14 L 4.332031 14 C 3.601562 14 3 13.398438 3 12.667969 L 3 6 C 3 5.265625 3.601562 4.667969 4.332031 4.667969 L 13.667969 4.667969 C 14.398438 4.667969 15 5.265625 15 6 L 15 12.667969 C 15 13.398438 14.398438 14 13.667969 14 Z M 13.667969 14 "/>
<path style=" stroke:none;fill-rule:nonzero;fill:rgb(96.078431%,48.627451%,0%);fill-opacity:1;" d="M 11.667969 12 L 2.332031 12 C 1.601562 12 1 11.398438 1 10.667969 L 1 4 C 1 3.265625 1.601562 2.667969 2.332031 2.667969 L 11.667969 2.667969 C 12.398438 2.667969 13 3.265625 13 4 L 13 10.667969 C 13 11.398438 12.398438 12 11.667969 12 Z M 11.667969 12 "/>
<path style=" stroke:none;fill-rule:nonzero;fill:rgb(100%,97.647059%,76.862745%);fill-opacity:1;" d="M 10 4.332031 C 9.449219 4.332031 9 4.78125 9 5.332031 C 9 5.886719 9.449219 6.332031 10 6.332031 C 10.550781 6.332031 11 5.886719 11 5.332031 C 11 4.78125 10.550781 4.332031 10 4.332031 Z M 10 4.332031 "/>
<path style=" stroke:none;fill-rule:nonzero;fill:rgb(58.039216%,16.470588%,3.529412%);fill-opacity:1;" d="M 5.667969 5.964844 L 2.667969 10.332031 L 8.667969 10.332031 Z M 5.667969 5.964844 "/>
<path style=" stroke:none;fill-rule:nonzero;fill:rgb(74.901961%,21.176471%,4.705882%);fill-opacity:1;" d="M 9.332031 7.832031 L 7.332031 10.332031 L 11.332031 10.332031 Z M 9.332031 7.832031 "/>
</g>
</svg>
